<?xml version="1.0" standalone="no"?><!DOCTYPE svg PUBLIC "-//W3C//DTD SVG 1.1//EN" "http://www.w3.org/Graphics/SVG/1.1/DTD/svg11.dtd"><svg t="1611053194784" class="icon" viewBox="0 0 1024 1024" version="1.1" xmlns="http://www.w3.org/2000/svg" p-id="2452" width="64" height="64" xmlns:xlink="http://www.w3.org/1999/xlink"><defs><style type="text/css"></style></defs><path d="M889.6 384l-262.4-6.4-86.4-246.4H480l-86.4 246.4-259.2 6.4-19.2 57.6 208 156.8-76.8 249.6 48 35.2L512 736l214.4 150.4 19.2-12.8v19.2-19.2l28.8-22.4-76.8-249.6 208-156.8-16-60.8z m-246.4 179.2l-12.8 35.2 54.4 182.4-153.6-108.8h-35.2l-156.8 108.8 54.4-182.4-12.8-35.2L227.2 448l192-3.2 28.8-22.4 64-182.4 64 182.4 28.8 22.4 192 3.2-153.6 115.2z" fill="#d4237a" p-id="2453"></path></svg>